# xmcd CD database file
#
# Track frame offsets:
#	150
#	11645
#	32350
#	47992
#	60382
#	73902
#	89470
#	105470
#	121437
#	134202
#	149247
#	162087
#	175095
#	188300
#	200330
#	213570
#	228525
#	240530
#	255402
#	267260
#	283430
#	297397
#
# Disc length: 4130 seconds
#
# Revision: 1
# Processed by: cddbd v1.5.2PL0 Copyright (c) Steve Scherf et al.
# Submitted via: CDex 1.51
#
DISCID=53102016
DTITLE=Bob Scobey's Frisco Band - Vol. 196 - Doctor Jazz 1955 - 1956
DYEAR=1996
DGENRE=Jazz
TTITLE0=Doctor Jazz (Oliver-Melrose)
TTITLE1=A Closer Walk With Thee (Traditional)
TTITLE2=Ostrich Walk (Larocca-Shields-Sbarbaro-Edwards)
TTITLE3=San (Mcphail-Michels)
TTITLE4=Ja-Da (R.Carleton)
TTITLE5=Jazz Me Blues (T.Delaney)
TTITLE6=St. James Infirmary (Traditional)
TTITLE7=Sensation (Larocca-Shields-Edwards-Sbarbaro-Sigman-Ragas)
TTITLE8=Curse Of An Aching Heart (Piantadosi-Fink)
TTITLE9=Michigan Water Blues (C.Williams)
TTITLE10=Sobbin' Blues (Kassel-Burton)
TTITLE11=I Ain't Gonna Give Nobody None Of This Jelly Roll (Williams)
TTITLE12=St. Louis Blues (W.C.Handy)
TTITLE13=Indiana (Hanley-Mcdonald)
TTITLE14=Love Me Or Leave Me (Kahn-Donaldson)
TTITLE15=When The Midnight Choo-Choo Leaves For Alabam' (I.Berlin)
TTITLE16=Angry (Brunies-Cassard-Mecum)
TTITLE17=You Can Depend On Me (Carpenter-Dunlap-Hines)
TTITLE18=Travellin' Shoes (C.Hayes)
TTITLE19=At The Devil's Ball (I.Berlin)
TTITLE20=Home (Van Steeden-Clarkson)
TTITLE21=I Want To Go Back To Michigan (I.Berlin)
EXTD=YEAR: 1996
EXTT0=
EXTT1=
EXTT2=
EXTT3=
EXTT4=
EXTT5=
EXTT6=
EXTT7=
EXTT8=
EXTT9=
EXTT10=
EXTT11=
EXTT12=
EXTT13=
EXTT14=
EXTT15=
EXTT16=
EXTT17=
EXTT18=
EXTT19=
EXTT20=
EXTT21=
PLAYORDER=
